<?xml version="1.0" encoding="UTF-8" standalone="no"?>
<!DOCTYPE svg PUBLIC "-//W3C//DTD SVG 1.1//EN"
 "http://www.w3.org/Graphics/SVG/1.1/DTD/svg11.dtd">
<!-- Generated by graphviz version 2.43.0 (0)
 -->
<!-- Title: %3 Pages: 1 -->
<svg width="167pt" height="305pt"
 viewBox="0.00 0.00 167.00 305.00" xmlns="http://www.w3.org/2000/svg" xmlns:xlink="http://www.w3.org/1999/xlink">
<g id="graph0" class="graph" transform="scale(1 1) rotate(0) translate(4 301)">
<title>%3</title>
<polygon fill="white" stroke="transparent" points="-4,4 -4,-301 163,-301 163,4 -4,4"/>
<!-- 0 -->
<g id="node1" class="node">
<title>0</title>
<polygon fill="none" stroke="black" points="54,-297 0,-297 0,-261 54,-261 54,-297"/>
<text text-anchor="middle" x="27" y="-275.3" font-family="Times,serif" font-size="14.00">0</text>
</g>
<!-- B -->
<g id="node2" class="node">
<title>B</title>
<ellipse fill="none" stroke="black" cx="93" cy="-105" rx="27" ry="18"/>
<text text-anchor="middle" x="93" y="-101.3" font-family="Times,serif" font-size="14.00">B</text>
</g>
<!-- G -->
<g id="node3" class="node">
<title>G</title>
<ellipse fill="none" stroke="black" cx="93" cy="-18" rx="27" ry="18"/>
<text text-anchor="middle" x="93" y="-14.3" font-family="Times,serif" font-size="14.00">G</text>
</g>
<!-- B&#45;&#45;G -->
<g id="edge1" class="edge">
<title>B&#45;&#45;G</title>
<path fill="none" stroke="black" d="M93,-86.8C93,-72.05 93,-50.92 93,-36.18"/>
<text text-anchor="middle" x="98" y="-57.8" font-family="Times,serif" font-size="14.00">4</text>
</g>
<!-- A -->
<g id="node4" class="node">
<title>A</title>
<ellipse fill="none" stroke="black" cx="99" cy="-279" rx="27" ry="18"/>
<text text-anchor="middle" x="99" y="-275.3" font-family="Times,serif" font-size="14.00">A</text>
</g>
<!-- A&#45;&#45;B -->
<g id="edge3" class="edge">
<title>A&#45;&#45;B</title>
<path fill="none" stroke="black" d="M94.84,-261.08C91.71,-247.4 87.67,-227.59 86,-210 83.1,-179.37 87.14,-143.56 90.18,-122.96"/>
<text text-anchor="middle" x="91" y="-188.3" font-family="Times,serif" font-size="14.00">2</text>
</g>
<!-- C -->
<g id="node5" class="node">
<title>C</title>
<ellipse fill="none" stroke="black" cx="132" cy="-192" rx="27" ry="18"/>
<text text-anchor="middle" x="132" y="-188.3" font-family="Times,serif" font-size="14.00">C</text>
</g>
<!-- A&#45;&#45;C -->
<g id="edge2" class="edge">
<title>A&#45;&#45;C</title>
<path fill="none" stroke="black" d="M105.52,-261.21C111.31,-246.31 119.71,-224.65 125.49,-209.76"/>
<text text-anchor="middle" x="122" y="-231.8" font-family="Times,serif" font-size="14.00">1</text>
</g>
<!-- C&#45;&#45;B -->
<g id="edge4" class="edge">
<title>C&#45;&#45;B</title>
<path fill="none" stroke="black" d="M124.48,-174.61C117.57,-159.56 107.4,-137.37 100.5,-122.34"/>
<text text-anchor="middle" x="119" y="-144.8" font-family="Times,serif" font-size="14.00">3</text>
</g>
</g>
</svg>
